<svg width="21" height="21" viewBox="0 0 21 21" fill="none" xmlns="http://www.w3.org/2000/svg">
<path d="M16.9004 20.0996H4.90039C2.70039 20.0996 0.900391 18.2996 0.900391 16.0996V4.09961C0.900391 1.89961 2.70039 0.0996094 4.90039 0.0996094H16.9004C19.1004 0.0996094 20.9004 1.89961 20.9004 4.09961V16.0996C20.9004 18.2996 19.1004 20.0996 16.9004 20.0996Z" fill="white"/>
<path d="M12.8004 6.09961H13.9004V4.19958C13.7004 4.19958 13.1004 4.09961 12.3004 4.09961C10.7004 4.09961 9.6004 5.09966 9.6004 6.89966V8.59961H7.90039V10.6996H9.6004V16.0996H11.7004V10.6996H13.4004L13.7004 8.59961H11.8004V7.09961C11.7004 6.49961 11.9004 6.09961 12.8004 6.09961Z" fill="#383838"/>
</svg>
