<svg width="21" height="21" viewBox="0 0 21 21" fill="none" xmlns="http://www.w3.org/2000/svg">
<path d="M20.1 6C20.1 4.9 19.9 4.19998 19.6 3.59998C19.3 2.89998 19 2.29993 18.4 1.79993C17.9 1.29993 17.3 0.899976 16.6 0.599976C16 0.399976 15.2 0.199976 14.2 0.0999756C13.1 -2.44156e-05 12.8 0 10.1 0C7.39999 0 7 -2.44156e-05 6 0.0999756C4.9 0.0999756 4.19999 0.299976 3.59999 0.599976C2.89999 0.899976 2.29999 1.19993 1.79999 1.79993C1.29999 2.29993 0.899991 2.89998 0.599991 3.59998C0.399991 4.19998 0.199991 5 0.0999908 6C-9.15676e-06 7.1 0 7.39998 0 10.1C0 12.8 -9.15676e-06 13.2 0.0999908 14.2C0.0999908 15.3 0.299991 16 0.599991 16.6C0.899991 17.3 1.19999 17.9 1.79999 18.4C2.29999 18.9 2.89999 19.3 3.59999 19.6C4.19999 19.8 5 20 6 20.1C7.1 20.1 7.39999 20.2 10.1 20.2C12.8 20.2 13.2 20.2 14.2 20.1C15.3 20.1 16 19.9 16.6 19.6C17.9 19.1 19 18 19.5 16.7C19.7 16.1 19.9 15.2999 20 14.2999C20 13.1999 20.1 12.9 20.1 10.2C20.1 7.39995 20.1 7.1 20.1 6ZM18.3 14.2C18.3 15.2 18.1 15.7 18 16.1C17.7 17 17 17.7 16.1 18C15.7 18.1 15.2 18.2999 14.2 18.2999C13.1 18.2999 12.8 18.4 10.2 18.4C7.5 18.4 7.2 18.3999 6.2 18.2999C5.2 18.2999 4.69999 18.1 4.29999 18C3.89999 17.8 3.5 17.5999 3.2 17.2999C2.9 16.9999 2.6 16.6 2.5 16.2C2.4 15.8 2.2 15.2999 2.2 14.2999C2.2 13.1999 2.09999 12.8999 2.09999 10.2999C2.09999 7.59993 2.1 7.29993 2.2 6.29993C2.2 5.29993 2.4 4.80002 2.5 4.40002C2.7 4.00002 2.89999 3.59993 3.29999 3.29993C3.59999 2.99993 3.99999 2.69998 4.39999 2.59998C4.79999 2.49998 5.29999 2.29993 6.29999 2.29993C7.39999 2.29993 7.69999 2.19995 10.3 2.19995C13 2.19995 13.3 2.19993 14.3 2.29993C15.3 2.29993 15.8 2.49998 16.2 2.59998C16.6 2.79998 17 2.99993 17.3 3.29993C17.6 3.59993 17.9 4.00002 18 4.40002C18.1 4.80002 18.3 5.29993 18.3 6.29993C18.3 7.39993 18.4 7.69993 18.4 10.2999C18.3 12.7999 18.3 13.1 18.3 14.2Z" fill="white"/>
<path d="M10.1 5C7.29999 5 5 7.29998 5 10.1C5 12.9 7.29999 15.2 10.1 15.2C12.9 15.2 15.2 12.9 15.2 10.1C15.3 7.29998 13 5 10.1 5ZM10.1 13.4C8.29999 13.4 6.79999 11.9 6.79999 10.1C6.79999 8.29998 8.29999 6.79993 10.1 6.79993C11.9 6.79993 13.4 8.29998 13.4 10.1C13.4 11.9 12 13.4 10.1 13.4Z" fill="white"/>
<path d="M16.7 4.79956C16.7 5.49956 16.2 5.99963 15.5 5.99963C14.8 5.99963 14.3 5.49956 14.3 4.79956C14.3 4.09956 14.8 3.59961 15.5 3.59961C16.1 3.59961 16.7 4.09956 16.7 4.79956Z" fill="white"/>
</svg>
