<svg width="20" height="20" viewBox="0 0 20 20" fill="none" xmlns="http://www.w3.org/2000/svg">
<path d="M16 20H4C1.8 20 0 18.2 0 16V4C0 1.8 1.8 0 4 0H16C18.2 0 20 1.8 20 4V16C20 18.2 18.2 20 16 20Z" fill="white"/>
<path d="M16 15.9998V11.5997C16 9.39973 15.5 7.7998 13 7.7998C11.8 7.7998 11 8.49973 10.6 9.09973V7.99976H8.19998V15.9998H10.7V11.9998C10.7 10.9998 10.9 9.89978 12.2 9.89978C13.5 9.89978 13.5 11.0998 13.5 11.9998V15.8998H16V15.9998Z" fill="#383838"/>
<path d="M6.69998 8H4.19998V16H6.69998V8Z" fill="#383838"/>
<path d="M5.39999 4C4.59999 4 4 4.60002 4 5.40002C4 6.20002 4.59999 6.90002 5.39999 6.90002C6.19999 6.90002 6.79999 6.20002 6.79999 5.40002C6.89999 4.70002 6.19999 4 5.39999 4Z" fill="#383838"/>
</svg>
