<svg width="160" height="30" viewBox="0 0 160 30" fill="none" xmlns="http://www.w3.org/2000/svg">
<path d="M58.7389 12.0022C58.7389 12.5121 58.6624 12.9965 58.484 13.4299C58.3055 13.8633 58.0761 14.2457 57.7447 14.5771C57.9996 14.7811 58.2035 14.985 58.433 15.24C58.6369 15.4949 58.8154 15.7499 58.9683 16.0303C59.1213 16.3107 59.2233 16.6167 59.3253 16.9481C59.4017 17.254 59.4527 17.5854 59.4527 17.9169C59.4527 18.4777 59.3508 19.0131 59.1468 19.523C58.9429 20.0329 58.6369 20.4663 58.28 20.8487C57.9231 21.2311 57.4897 21.537 56.9798 21.7664C56.4954 21.9959 55.9601 22.0979 55.3992 22.0979H49.2042C49.0512 22.0979 48.9237 22.0469 48.8218 21.9704C48.7198 21.8939 48.6688 21.7665 48.6688 21.588V8.61154C48.6688 8.45858 48.7198 8.30562 48.7963 8.22913C48.8727 8.15265 49.0257 8.07617 49.1787 8.07617H54.7874C55.3227 8.07617 55.8581 8.17815 56.317 8.3821C56.7759 8.58605 57.2093 8.86648 57.5662 9.19791C57.9231 9.52933 58.2035 9.96273 58.4075 10.4216C58.6369 10.9315 58.7389 11.4414 58.7389 12.0022ZM55.9346 12.0532C55.9346 11.5943 55.7816 11.2119 55.4757 10.957C55.1698 10.6766 54.7619 10.5491 54.2775 10.5491H51.4476V13.7613H54.252C54.5069 13.7613 54.7364 13.7103 54.9403 13.6339C55.1443 13.5574 55.3227 13.4299 55.4757 13.2769C55.6286 13.124 55.7306 12.9455 55.8326 12.7416C55.9091 12.5121 55.9346 12.2827 55.9346 12.0532ZM51.4476 15.9793V19.6504H54.8128C55.0423 19.6504 55.2717 19.5995 55.4757 19.4975C55.6796 19.3955 55.8836 19.268 56.0365 19.1151C56.1895 18.9621 56.317 18.7582 56.4189 18.5542C56.5209 18.3248 56.5464 18.0953 56.5464 17.8659C56.5464 17.6364 56.4954 17.407 56.4189 17.1775C56.317 16.9481 56.215 16.7441 56.0365 16.5657C55.8836 16.3872 55.7051 16.2597 55.4757 16.1323C55.2462 16.0048 55.0423 15.9793 54.7874 15.9793H51.4476V15.9793Z" fill="#383838"/>
<path d="M65.5203 16.5646C65.5203 16.998 65.5968 17.4314 65.7498 17.8138C65.9027 18.1962 66.1067 18.5531 66.3616 18.8336C66.6165 19.114 66.948 19.3689 67.3049 19.5219C67.6618 19.7004 68.0697 19.7768 68.5286 19.7768C68.962 19.7768 69.3699 19.7004 69.7268 19.5219C70.0837 19.3434 70.4151 19.114 70.6701 18.8336C70.925 18.5531 71.129 18.1962 71.282 17.8138C71.4349 17.4314 71.5114 16.998 71.5114 16.5646V8.50849C71.5114 8.40652 71.5624 8.30454 71.6389 8.22806C71.7154 8.15157 71.8173 8.10059 71.9448 8.10059H73.8059C73.9078 8.10059 74.0353 8.12608 74.1373 8.20256C74.2392 8.27905 74.2903 8.38102 74.2903 8.50849V16.5646C74.2903 17.3549 74.1373 18.0942 73.8314 18.8081C73.5254 19.4964 73.1175 20.1083 72.5821 20.6436C72.0468 21.179 71.4349 21.5869 70.7466 21.8928C70.0582 22.1988 69.2934 22.3517 68.5031 22.3517C67.9677 22.3517 67.4578 22.2753 66.9735 22.1478C66.4891 22.0203 66.0302 21.8164 65.5968 21.5614C65.1634 21.3065 64.781 21.0005 64.4241 20.6691C64.0671 20.3122 63.7612 19.9298 63.5063 19.4964C63.2513 19.063 63.0474 18.6041 62.9199 18.1197C62.7924 17.6353 62.716 17.1255 62.716 16.5901V8.50849C62.716 8.40652 62.7415 8.33003 62.818 8.22806C62.8944 8.12608 62.9964 8.10059 63.0984 8.10059H65.0614C65.1379 8.10059 65.2399 8.15157 65.3418 8.22806C65.4438 8.30454 65.4948 8.40652 65.4948 8.50849V16.5646H65.5203Z" fill="#383838"/>
<path d="M78.2673 22.0968C78.1144 22.0968 78.0124 22.0458 77.9104 21.9438C77.8084 21.8419 77.7574 21.7144 77.7574 21.5359V20.1338C77.7574 20.0318 77.7829 19.9043 77.8594 19.8023L85.1762 10.6755H78.3438C78.1908 10.6755 78.0634 10.6245 77.9614 10.548C77.8594 10.4715 77.8339 10.3186 77.8339 10.1656V8.61047C77.8339 8.4575 77.8849 8.33003 77.9614 8.22806C78.0379 8.12608 78.1908 8.10059 78.3438 8.10059H88.4649C88.6179 8.10059 88.7454 8.15157 88.8473 8.22806C88.9493 8.33003 89.0003 8.4575 89.0003 8.61047V9.98714C89.0003 10.0381 89.0003 10.1146 88.9748 10.1401C88.9748 10.1911 88.9493 10.2421 88.8983 10.3186L81.5815 19.4964H88.5159C88.6689 19.4964 88.7708 19.5474 88.8728 19.6239C88.9748 19.7004 89.0258 19.8278 89.0258 20.0063V21.5359C89.0258 21.6634 88.9748 21.7909 88.8728 21.8928C88.7708 22.0203 88.6434 22.0713 88.4904 22.0713H78.2673V22.0968Z" fill="#383838"/>
<path d="M91.8301 22.0968C91.6771 22.0968 91.5751 22.0458 91.4731 21.9438C91.3712 21.8419 91.3202 21.7144 91.3202 21.5359V20.1338C91.3202 20.0318 91.3457 19.9043 91.4222 19.8023L98.7389 10.6755H91.9066C91.7536 10.6755 91.6261 10.6245 91.5242 10.548C91.4222 10.4715 91.3967 10.3186 91.3967 10.1656V8.61047C91.3967 8.4575 91.4477 8.33003 91.5242 8.22806C91.6006 8.12608 91.7536 8.10059 91.9066 8.10059H102.028C102.181 8.10059 102.308 8.15157 102.41 8.22806C102.512 8.33003 102.563 8.4575 102.563 8.61047V9.98714C102.563 10.0381 102.563 10.1146 102.538 10.1401C102.538 10.1911 102.512 10.2421 102.461 10.3186L95.1443 19.4964H102.079C102.232 19.4964 102.334 19.5474 102.436 19.6239C102.538 19.7004 102.589 19.8278 102.589 20.0063V21.5359C102.589 21.6634 102.538 21.7909 102.436 21.8928C102.334 22.0203 102.206 22.0713 102.053 22.0713H91.8301V22.0968Z" fill="#383838"/>
<path d="M112.761 8.0752C113.271 8.0752 113.755 8.17717 114.214 8.35563C114.673 8.53408 115.055 8.78902 115.387 9.12045C115.718 9.45187 115.973 9.80879 116.177 10.2677C116.381 10.7011 116.457 11.1855 116.457 11.6953C116.457 12.3327 116.304 12.8936 116.024 13.4289C115.718 13.9388 115.336 14.3722 114.851 14.6781C115.183 14.8056 115.514 15.0096 115.794 15.2645C116.075 15.5194 116.33 15.7999 116.534 16.1058C116.738 16.4117 116.916 16.7686 117.018 17.1256C117.146 17.508 117.197 17.8649 117.197 18.2728C117.197 18.7827 117.095 19.2671 116.916 19.726C116.712 20.1848 116.457 20.5927 116.126 20.9497C115.794 21.3066 115.412 21.587 114.953 21.791C114.494 21.9949 114.01 22.1224 113.5 22.1224H107.228C107.05 22.1224 106.948 22.0204 106.948 21.842V8.45761C106.948 8.25365 107.025 8.15168 107.178 8.15168C107.203 8.12618 107.229 8.10069 107.254 8.10069H112.761V8.0752ZM115.361 11.6953C115.361 11.3129 115.285 10.9815 115.157 10.6756C115.03 10.3697 114.826 10.1147 114.596 9.88527C114.367 9.65582 114.086 9.47737 113.755 9.3499C113.449 9.22243 113.092 9.17144 112.71 9.17144H107.993V14.3212H112.735C113.092 14.3212 113.449 14.2447 113.755 14.1173C114.086 13.9898 114.341 13.7859 114.596 13.5564C114.826 13.327 115.03 13.0465 115.157 12.7151C115.285 12.4092 115.361 12.0523 115.361 11.6953ZM116.075 18.2473C116.075 17.8904 115.998 17.5335 115.845 17.1766C115.693 16.8196 115.514 16.5137 115.259 16.2588C115.03 15.9783 114.724 15.7744 114.418 15.6214C114.086 15.4685 113.755 15.392 113.398 15.392H107.993V21.0516H113.475C113.831 21.0261 114.163 20.9497 114.494 20.7967C114.8 20.6437 115.081 20.4398 115.336 20.1848C115.565 19.9299 115.769 19.624 115.896 19.2926C116.024 18.9611 116.075 18.6297 116.075 18.2473Z" fill="#383838"/>
<path d="M131.014 8.0752C131.244 8.0752 131.371 8.20266 131.371 8.43211V8.81452C131.371 8.9165 131.346 9.01847 131.269 9.06946C131.218 9.14594 131.116 9.17144 130.989 9.17144H122.627V14.2192H129.383C129.485 14.2192 129.587 14.2447 129.638 14.2957C129.714 14.3467 129.74 14.4487 129.74 14.5762V14.9586C129.74 15.0606 129.714 15.1625 129.638 15.2135C129.561 15.2645 129.485 15.3155 129.357 15.3155H122.601V21.0007H131.091C131.32 21.0007 131.448 21.1281 131.448 21.3576V21.7655C131.448 21.9949 131.32 22.0969 131.091 22.0969H121.811C121.735 22.0969 121.658 22.0714 121.582 22.0204C121.531 21.9694 121.505 21.8929 121.505 21.7655V8.43211C121.505 8.40662 121.505 8.40662 121.505 8.38112C121.505 8.35563 121.505 8.35563 121.505 8.35563C121.531 8.17717 121.633 8.10069 121.837 8.10069H131.014V8.0752Z" fill="#383838"/>
<path d="M134.711 21.7657C134.788 21.5362 134.889 21.2813 134.991 21.0518C135.093 20.8224 135.17 20.593 135.272 20.389C135.858 18.9868 136.368 17.7631 136.802 16.7179C137.235 15.6726 137.617 14.7293 137.974 13.939C138.306 13.1487 138.586 12.4604 138.841 11.8995C139.07 11.3386 139.3 10.8288 139.478 10.3954C139.657 9.96195 139.81 9.57954 139.963 9.24812C140.09 8.9167 140.243 8.61077 140.371 8.30485C140.396 8.22836 140.447 8.15188 140.498 8.10089C140.549 8.0499 140.626 8.02441 140.728 8.02441H141.008C141.11 8.02441 141.186 8.0499 141.237 8.10089C141.288 8.15188 141.339 8.20287 141.365 8.27935L146.923 21.6382C146.923 21.6382 146.923 21.6892 146.948 21.7147C146.974 21.7402 146.974 21.7912 146.974 21.8167C146.974 21.9441 146.872 22.0461 146.693 22.0716H146.285H146.26H146.234C146.081 22.0716 145.954 21.9696 145.877 21.7912L144.526 18.5279H137.26C137.031 19.0633 136.802 19.6242 136.598 20.1596C136.368 20.6949 136.164 21.2558 135.935 21.7912C135.884 21.9441 135.756 22.0461 135.603 22.0461C135.578 22.0461 135.527 22.0461 135.501 22.0461H135.093C134.889 22.0206 134.813 21.9441 134.813 21.8167C134.686 21.8167 134.686 21.7912 134.711 21.7657ZM140.804 9.73251C140.269 11.0327 139.733 12.3329 139.198 13.6076C138.663 14.8823 138.127 16.1825 137.592 17.4827H143.965L140.804 9.73251Z" fill="#383838"/>
<path d="M158.65 8.0753C158.752 8.0753 158.854 8.1008 158.905 8.15178C158.981 8.20277 159.007 8.30475 159.032 8.40672V8.78913C159.032 8.89111 159.007 8.99309 158.93 9.04407C158.879 9.12056 158.777 9.14605 158.65 9.14605H154.265V21.7146C154.265 21.944 154.137 22.0715 153.908 22.0715H153.526C153.296 22.0715 153.169 21.944 153.169 21.7146V9.14605H148.758C148.529 9.14605 148.427 9.01858 148.427 8.78913V8.40672C148.427 8.30475 148.452 8.22827 148.529 8.15178C148.58 8.1008 148.682 8.0498 148.784 8.0498H158.65V8.0753Z" fill="#383838"/>
<path d="M15.5265 12.7667C18.1524 10.1408 22.4354 10.1408 25.0868 12.7667L28.2225 9.63093C23.8631 5.27146 16.7757 5.27146 12.4163 9.63093L15.5265 12.7667Z" fill="#00A19A"/>
<path d="M7.90384 5.14341L11.0651 8.30467C16.1639 3.20587 24.5004 3.20587 29.5992 8.30467L32.7605 5.14341C25.9026 -1.71447 14.7617 -1.71447 7.90384 5.14341Z" fill="#00A19A"/>
<path d="M31.4603 17.5341H27.0498C27.0498 21.2562 24.016 24.29 20.2939 24.29C18.5603 24.29 16.8267 23.6271 15.5265 22.327L3.77378 10.5742L0.689012 13.659C0.663518 13.6845 0.663518 13.7355 0.689012 13.761L12.3908 25.4627C14.7107 27.7827 17.7955 28.8789 20.8548 28.7259C20.9312 28.7259 20.9822 28.7259 21.0587 28.7005C21.1862 28.7005 21.2882 28.675 21.4156 28.675C21.4921 28.675 21.5686 28.6495 21.6451 28.6495C21.7471 28.624 21.849 28.624 21.9765 28.5985C22.053 28.5985 22.104 28.573 22.1805 28.573C22.2824 28.5475 22.4099 28.522 22.5119 28.522C22.5629 28.522 22.6139 28.4965 22.6649 28.4965C22.7923 28.471 22.9198 28.4455 23.0473 28.3945C23.0728 28.3945 23.0982 28.369 23.1237 28.369C23.2512 28.3435 23.4297 28.2925 23.5826 28.2416H23.6081C25.2907 27.7317 26.8714 26.8139 28.197 25.4882C30.2111 23.4232 31.4603 20.6189 31.4603 17.5341Z" fill="#383838"/>
<path d="M3.11865 2.04932L0 5.16797L11.5912 16.7592L14.7099 13.6406L3.11865 2.04932Z" fill="#383838"/>
<path d="M31.8936 11.3902C34.545 16.336 33.7802 22.6586 29.5992 26.8396L32.7604 30.0008C38.3436 24.4176 39.3889 15.9536 35.8452 9.3252L31.8936 11.3902Z" fill="#383838"/>
</svg>
